<?xml version="1.0" encoding="UTF-8"?>
<svg version="1.1" xmlns="http://www.w3.org/2000/svg" width="2134" height="2134">
<path d="M0 0 C1.56597679 -0.00628418 1.56597679 -0.00628418 3.16358948 -0.01269531 C6.57133738 -0.0224964 9.978959 -0.02247343 13.38671875 -0.01953125 C14.5611554 -0.01925934 15.73559204 -0.01898743 16.94561768 -0.01870728 C40.03298449 0.00573187 63.03307985 0.73240913 86.07421875 2.16796875 C86.93444641 2.22124329 87.79467407 2.27451782 88.68096924 2.32940674 C152.60594487 6.33642044 210.67664046 21.34649402 269.07421875 48.16796875 C270.53118164 48.8326416 270.53118164 48.8326416 272.01757812 49.51074219 C286.82422407 56.2991877 301.03997482 63.90639016 315.07421875 72.16796875 C316.52127197 73.0172998 316.52127197 73.0172998 317.99755859 73.88378906 C342.05969012 88.07664 364.65608362 104.23577643 386.07421875 122.16796875 C386.5734082 122.58224121 387.07259766 122.99651367 387.58691406 123.42333984 C400.70792139 134.31450174 413.02716491 145.9498482 425.06054688 158.02392578 C426.9650038 159.93379869 428.87482694 161.83819024 430.78515625 163.7421875 C436.7597479 169.71323953 442.64654831 175.68742631 448.07421875 182.16796875 C448.95064659 183.17810516 449.82819785 184.18726827 450.70703125 185.1953125 C458.18241974 193.92441035 465.18518759 202.97120822 472.07421875 212.16796875 C472.80970947 213.14733398 472.80970947 213.14733398 473.56005859 214.14648438 C489.79993819 235.82918758 504.02272803 258.77117193 516.74121094 282.68261719 C517.91518639 284.87145787 519.11473702 287.04210348 520.33203125 289.20703125 C561.10509313 362.49200748 577.59290138 445.68520211 577.33496094 528.73144531 C577.3235676 532.42797362 577.33036257 536.12421358 577.34184551 539.82073212 C577.43901778 576.85228141 575.74869352 614.03998178 567.07421875 650.16796875 C566.77805664 651.40450195 566.48189453 652.64103516 566.17675781 653.91503906 C558.52761502 685.48567673 548.36414143 716.50881253 535.07421875 746.16796875 C534.38078369 747.72765381 534.38078369 747.72765381 533.67333984 749.31884766 C514.9255754 791.30257258 491.54649221 830.04131982 463.07421875 866.16796875 C462.62643066 866.73644531 462.17864258 867.30492187 461.71728516 867.890625 C459.22643833 871.03264009 456.67010562 874.11239358 454.07421875 877.16796875 C453.61015625 877.71549805 453.14609375 878.26302734 452.66796875 878.82714844 C441.67816477 891.758391 430.17082558 904.14130196 418.19921875 916.16796875 C417.50989258 916.86196777 416.82056641 917.5559668 416.11035156 918.27099609 C412.15651286 922.21246121 408.09631306 925.97155636 403.86914062 929.61816406 C401.62893867 931.55244072 399.44609559 933.54604281 397.26171875 935.54296875 C392.00989381 940.27040572 386.60017498 944.76607133 381.07421875 949.16796875 C380.43484375 949.6798877 379.79546875 950.19180664 379.13671875 950.71923828 C367.80677465 959.76364095 356.1492864 968.15027914 344.07421875 976.16796875 C343.26726563 976.70808594 342.4603125 977.24820313 341.62890625 977.8046875 C304.75387408 1002.44657408 264.83719584 1022.29478051 223.07421875 1037.16796875 C221.87603516 1037.59706543 220.67785156 1038.02616211 219.44335938 1038.46826172 C164.02582743 1058.12942532 108.15975553 1065.61087393 49.51074219 1065.42871094 C45.81421674 1065.41731761 42.11797964 1065.42411253 38.42146397 1065.43559551 C-17.57784105 1065.58253936 -70.71930543 1058.17643915 -123.92578125 1040.16796875 C-125.55821777 1039.62148682 -125.55821777 1039.62148682 -127.22363281 1039.06396484 C-164.58140494 1026.47590209 -200.24349647 1009.63859056 -233.92578125 989.16796875 C-234.78284668 988.64847656 -235.63991211 988.12898438 -236.52294922 987.59375 C-248.4130404 980.34556905 -259.74214688 972.45740903 -270.92578125 964.16796875 C-272.00222819 963.37969465 -273.07901512 962.59188448 -274.15625 961.8046875 C-296.90756335 945.00985835 -317.96332851 926.16333258 -337.98828125 906.23046875 C-338.67833252 905.54509033 -339.36838379 904.85971191 -340.0793457 904.15356445 C-344.00698573 900.21349973 -347.74878927 896.16433354 -351.38256836 891.9519043 C-353.26789689 889.77248718 -355.22063342 887.65976266 -357.17578125 885.54296875 C-362.22126178 879.94444229 -366.82274923 874.05034023 -371.42480469 868.08837891 C-372.914805 866.1820122 -374.43484934 864.30405207 -375.96484375 862.4296875 C-434.07981839 790.54854588 -475.18266317 696.16268492 -485.92578125 587.16796875 C-486.01335693 586.02948486 -486.10093262 584.89100098 -486.19116211 583.71801758 C-487.2528011 568.75404168 -487.11310564 553.74427464 -487.11108398 538.7512207 C-487.11100331 535.59393512 -487.11786424 532.43679647 -487.1315918 529.27954102 C-487.56023159 429.06695659 -460.82162704 335.83969314 -387.92578125 221.16796875 C-387.49716797 220.57886719 -387.06855469 219.98976563 -386.62695312 219.3828125 C-384.10872779 215.93944013 -381.53318038 212.54415696 -378.92578125 209.16796875 C-378.5076416 208.6251123 -378.08950195 208.08225586 -377.65869141 207.52294922 C-368.93340502 196.21923088 -359.84357685 185.25741679 -350.22387695 174.70141602 C-348.79136788 173.12220145 -347.36659986 171.53588678 -345.95385742 169.93896484 C-340.32340613 163.58683296 -334.44409464 157.53147698 -328.43237305 151.54418945 C-326.8580397 149.97524515 -325.28916536 148.40098317 -323.72070312 146.82617188 C-318.2940956 141.39566558 -312.77594191 136.14399497 -306.92578125 131.16796875 C-305.7687687 130.14686594 -304.61379127 129.12345214 -303.4609375 128.09765625 C-294.98105131 120.61404748 -286.22704002 113.6045531 -277.16455078 106.84033203 C-274.87954278 105.13342856 -272.60390044 103.41449939 -270.328125 101.6953125 C-229.80172802 71.26146996 -184.52064746 47.4480412 -136.92578125 30.16796875 C-135.89243652 29.78930664 -134.8590918 29.41064453 -133.79443359 29.02050781 C-104.31975531 18.33865835 -73.67418304 11.74186665 -42.98828125 5.60546875 C-41.89925507 5.38746613 -40.81022888 5.1694635 -39.6882019 4.94485474 C-36.57193816 4.32435152 -33.45437136 3.71105768 -30.3359375 3.1015625 C-28.95554794 2.82885025 -28.95554794 2.82885025 -27.54727173 2.55062866 C-18.31170722 0.77014406 -9.40386785 0.01167838 0 0 Z " fill="#FFFFFF" transform="translate(1021.92578125,533.83203125)"/>
<path d="M0 0 C20.50860425 17.9125784 34.31153155 39.05746606 36.40625 66.84375 C37.81857636 100.74231976 29.27164107 124.17209063 7.40625 149.84375 C6.33137629 151.12445059 5.25714322 152.40568917 4.18359375 153.6875 C-0.57092482 159.3322358 -5.37737174 164.814622 -10.69407654 169.94337463 C-12.40494134 171.65487158 -13.96261422 173.40742194 -15.51977539 175.25756836 C-20.86624341 181.40842609 -26.69987421 187.09372279 -32.46484375 192.84765625 C-33.7137738 194.09726145 -34.96255551 195.34701493 -36.2111969 196.59690857 C-38.81764431 199.20482304 -41.42587294 201.81093907 -44.03540039 204.41577148 C-47.36163521 207.73630965 -50.68335934 211.06131812 -54.00375271 214.38769627 C-56.57830823 216.96588426 -59.15526415 219.54166244 -61.73292732 222.11674309 C-62.95792868 223.3410826 -64.18220219 224.56615084 -65.40569878 225.79199409 C-76.94792478 237.35150214 -76.94792478 237.35150214 -82.9957428 242.46592712 C-85.67618456 244.77703935 -88.12469095 247.31134947 -90.59375 249.84375 C-94.48207207 253.78020391 -98.41647626 257.57595845 -102.63671875 261.16015625 C-104.01797334 262.34842118 -105.37264149 263.56793193 -106.70703125 264.80859375 C-130.80655363 287.20697337 -155.65569906 301.96213599 -189.2578125 301.125 C-216.94626911 299.94383584 -242.4100554 286.24892204 -261.3828125 266.39453125 C-282.41903007 242.12483147 -291.29504617 214.89061464 -289.59375 182.84375 C-287.5386172 158.55102644 -272.16298248 139.41507743 -256.59375 121.84375 C-255.83449219 120.98523438 -255.07523438 120.12671875 -254.29296875 119.2421875 C-252.07576893 116.76112909 -249.83802976 114.30032649 -247.59375 111.84375 C-246.69770069 110.85436222 -245.80187723 109.86476987 -244.90625 108.875 C-240.02591888 103.49829187 -235.07763083 98.22577631 -229.859375 93.171875 C-228.06516594 91.32817051 -226.4175269 89.46952096 -224.7565918 87.51098633 C-219.37077447 81.34126825 -213.51611485 75.62221174 -207.72265625 69.83984375 C-206.4737262 68.59023855 -205.22494449 67.34048507 -203.9763031 66.09059143 C-201.36985569 63.48267696 -198.76162706 60.87656093 -196.15209961 58.27172852 C-192.82586479 54.95119035 -189.50414066 51.62618188 -186.18374729 48.29980373 C-183.60919177 45.72161574 -181.03223585 43.14583756 -178.45457268 40.57075691 C-177.22957132 39.3464174 -176.00529781 38.12134916 -174.78180122 36.89550591 C-163.21867886 25.31507021 -163.21867886 25.31507021 -157.21006775 20.25209045 C-155.47215394 18.73780014 -153.87778229 17.13053783 -152.28125 15.46875 C-148.63748561 11.7674092 -144.66436984 8.55352154 -140.6171875 5.3046875 C-138.50618777 3.58643191 -136.43487616 1.8555214 -134.3828125 0.0703125 C-94.08762824 -34.96871699 -40.58126516 -33.73623248 0 0 Z " fill="#FFFFFF" transform="translate(1814.59375,308.15625)"/>
<path d="M0 0 C2.52679145 2.12112325 5.11508067 4.16309177 7.69677734 6.21679688 C12.17013911 9.87194255 16.23788868 13.8115563 20.23974609 17.97460938 C22.17239629 19.88679277 24.08850327 21.62091128 26.15673828 23.37084961 C32.4061725 28.82100694 38.18956714 34.75324826 44.04443359 40.61914062 C45.31645902 41.89049095 46.58863273 43.16169292 47.86094666 44.43275452 C50.51593962 47.08628022 53.16913378 49.74158781 55.82104492 52.39819336 C59.20211712 55.78496222 62.58765993 59.1672208 65.97457218 62.54814816 C68.59908302 65.16902706 71.22118479 67.79230579 73.84258842 70.41629219 C75.08925656 71.66362232 76.33665382 72.91022418 77.58482552 74.15604973 C89.35749238 85.91143484 89.35749238 85.91143484 94.4516449 91.9389801 C96.75931979 94.61750515 99.29203705 97.06283151 101.82177734 99.52929688 C105.75823126 103.41761894 109.55398579 107.35202313 113.13818359 111.57226562 C114.32644852 112.95352022 115.54595927 114.30818837 116.78662109 115.64257812 C139.18500072 139.7421005 153.94016333 164.59124594 153.10302734 198.19335938 C151.92186318 225.88181598 138.22694939 251.34560227 118.37255859 270.31835938 C94.47126811 291.03525128 67.43282939 300.23957463 35.82177734 298.52929688 C10.93143757 296.47006215 -8.12851184 281.52240525 -26.17822266 265.52929688 C-27.03673828 264.77003906 -27.89525391 264.01078125 -28.77978516 263.22851562 C-31.26083909 261.01131981 -33.7214877 258.77339326 -36.17822266 256.52929688 C-37.14630859 255.65402344 -38.11439453 254.77875 -39.11181641 253.87695312 C-44.78003575 248.7373807 -50.29454587 243.50187229 -55.63134766 238.01367188 C-57.55602964 236.13622136 -59.47880891 234.41212452 -61.5246582 232.6784668 C-67.69054957 227.29816031 -73.40436572 221.44704809 -79.18212891 215.65820312 C-80.4317341 214.40927307 -81.68148759 213.16049136 -82.93138123 211.91184998 C-85.5392957 209.30540256 -88.14541172 206.69717394 -90.75024414 204.08764648 C-94.07078231 200.76141166 -97.39579077 197.43968753 -100.72216892 194.11929417 C-103.30035691 191.54473864 -105.8761351 188.96778272 -108.45121574 186.39011955 C-109.67555525 185.16511819 -110.9006235 183.94084468 -112.12646675 182.7173481 C-123.6652544 171.19581151 -123.6652544 171.19581151 -128.81413269 165.12806702 C-130.63944801 162.98872159 -132.56931453 160.95740777 -134.50170898 158.9152832 C-141.21000312 151.80974967 -147.30674174 144.33531196 -153.17822266 136.52929688 C-153.82533203 135.67851562 -154.47244141 134.82773437 -155.13916016 133.95117188 C-173.19420227 109.27867089 -175.87829377 82.67940077 -171.52026367 52.93212891 C-170.46968456 46.45999142 -169.05409909 40.45832979 -166.17822266 34.52929688 C-165.78119141 33.67078125 -165.38416016 32.81226563 -164.97509766 31.92773438 C-154.18463521 10.40882363 -132.06799158 -12.93608928 -109.17822266 -21.47070312 C-68.55377418 -34.00097132 -32.33623266 -27.37958386 0 0 Z " fill="#FFFFFF" transform="translate(456.17822265625,310.470703125)"/>
<path d="M0 0 C1.15113281 0.350625 2.30226563 0.70125 3.48828125 1.0625 C21.55863795 7.29514998 35.67442356 20.66753429 49.37695312 33.49023438 C50.9548519 34.95800303 52.54450982 36.41145621 54.140625 37.859375 C59.73283995 42.93285306 65.18681288 48.09991396 70.453125 53.515625 C72.36948296 55.38495577 74.28138693 57.09880495 76.3190918 58.82348633 C82.65011905 64.34807142 88.50846729 70.36468094 94.44140625 76.30859375 C95.7358519 77.60236434 97.03044584 78.89598657 98.32518005 80.18946838 C101.02725151 82.89007239 103.72752381 85.59245893 106.42651367 88.29614258 C109.8681199 91.74344549 113.31419705 95.1862385 116.76164341 98.62769985 C119.43247711 101.29490212 122.10090244 103.96450368 124.76862907 106.63481331 C126.03762583 107.9044722 127.3073521 109.17340243 128.57785225 110.44155693 C140.54309019 122.38954307 140.54309019 122.38954307 145.65129089 128.41661072 C147.47017007 130.55198133 149.3960537 132.57713268 151.32348633 134.61401367 C158.03178046 141.7195472 164.12851909 149.19398491 170 157 C170.97066406 158.27617188 170.97066406 158.27617188 171.9609375 159.578125 C188.9938776 182.8539074 192.89470424 208.61153474 189.1796875 237.02246094 C186.05750828 257.02599749 176.50785023 272.35319338 163 287 C162.30318115 287.75676025 162.30318115 287.75676025 161.59228516 288.52880859 C143.44493069 307.98502382 122.0225193 319.9697434 95.09106445 321.12475586 C62.39776681 321.94329954 39.69723222 313.03543962 15 292 C13.71929941 290.92512629 12.43806083 289.85089322 11.15625 288.77734375 C5.5115142 284.02282518 0.029128 279.21637826 -5.09962463 273.89967346 C-6.81112158 272.18880866 -8.56367194 270.63113578 -10.41381836 269.07397461 C-16.56467609 263.72750659 -22.24997279 257.89387579 -28.00390625 252.12890625 C-29.25351145 250.8799762 -30.50326493 249.63119449 -31.75315857 248.3825531 C-34.36107304 245.77610569 -36.96718907 243.16787706 -39.57202148 240.55834961 C-42.89255965 237.23211479 -46.21756812 233.91039066 -49.54394627 230.58999729 C-52.12213426 228.01544177 -54.69791244 225.43848585 -57.27299309 222.86082268 C-58.4973326 221.63582132 -59.72240084 220.41154781 -60.94824409 219.18805122 C-72.50775214 207.64582522 -72.50775214 207.64582522 -77.62217712 201.5980072 C-79.93328935 198.91756544 -82.46759947 196.46905905 -85 194 C-88.93645391 190.11167793 -92.73220845 186.17727374 -96.31640625 181.95703125 C-97.50467118 180.57577666 -98.72418193 179.22110851 -99.96484375 177.88671875 C-122.19129206 153.97218576 -137.18049692 129.16228751 -136.34765625 95.73046875 C-134.94935709 65.67455447 -118.40044576 38.42589535 -96.66455078 18.46191406 C-70.78303497 -4.26887454 -32.473485 -10.24496471 0 0 Z " fill="#FFFFFF" transform="translate(1661,1530)"/>
<path d="M0 0 C21.25455101 21.89252331 29.46738452 47.0860625 29.15625 77.17578125 C28.3079338 108.58468841 12.02981464 130.50299261 -8.61962891 152.56884766 C-10.07457529 154.13328076 -11.51479242 155.70972006 -12.94921875 157.29296875 C-18.28025474 163.17526298 -23.73909569 168.8785504 -29.421875 174.421875 C-31.37860857 176.42385096 -33.17410679 178.40483726 -34.97583008 180.53393555 C-40.42318752 186.7790976 -46.35252496 192.55885666 -52.21484375 198.41015625 C-53.48619407 199.68218167 -54.75739604 200.95435539 -56.02845764 202.22666931 C-58.68198335 204.88166228 -61.33729094 207.53485643 -63.99389648 210.18676758 C-67.38066535 213.56783978 -70.76292393 216.95338258 -74.14385128 220.34029484 C-76.76473018 222.96480568 -79.38800892 225.58690744 -82.01199532 228.20831108 C-83.25932544 229.45497921 -84.50592731 230.70237648 -85.75175285 231.95054817 C-97.48651417 243.70256092 -97.48651417 243.70256092 -103.53392029 248.83110046 C-105.67127571 250.65320144 -107.69951068 252.58107259 -109.73901367 254.51098633 C-116.8445472 261.21928046 -124.31898491 267.31601909 -132.125 273.1875 C-133.40117187 274.15816406 -133.40117187 274.15816406 -134.703125 275.1484375 C-157.91694794 292.13603641 -183.7421949 296.07526874 -212.07495117 292.3671875 C-232.16083579 289.24543794 -247.37496306 279.67602062 -262.125 266.1875 C-262.95 265.44628906 -263.775 264.70507812 -264.625 263.94140625 C-284.18747712 245.46185197 -296.58254263 218.97620292 -297.40844727 192.08911133 C-297.91257966 154.75365937 -276.93137245 128.16325282 -252.72265625 102.00390625 C-250.2454379 99.31808003 -247.80623449 96.6024255 -245.375 93.875 C-242.320023 90.46668936 -239.17426584 87.2026995 -235.90565491 84.00059509 C-234.1457421 82.20861998 -232.50953563 80.35545053 -230.87670898 78.44750977 C-227.31298244 74.3516035 -223.56666761 70.48417297 -219.72265625 66.65234375 C-219.04126083 65.96999161 -218.35986542 65.28763947 -217.65782166 64.58460999 C-216.22794259 63.15405563 -214.79682089 61.72474233 -213.36450195 60.29663086 C-211.19302289 58.13050926 -209.02693675 55.95909826 -206.86132812 53.78710938 C-205.46125798 52.38770013 -204.06087762 50.98860116 -202.66015625 49.58984375 C-202.02344498 48.95110825 -201.3867337 48.31237274 -200.73072815 47.65428162 C-196.91240912 43.85545509 -192.98155541 40.24408311 -188.89390564 36.73622131 C-186.34129566 34.50134716 -183.9955315 32.11515274 -181.625 29.6875 C-177.96788824 25.98072143 -174.23535429 22.43444509 -170.2734375 19.0546875 C-168.09275889 17.15947955 -165.97083082 15.20767436 -163.85351562 13.2421875 C-158.703365 8.46410099 -153.4442489 3.90239151 -147.96484375 -0.5 C-145.9485035 -2.14191669 -143.96771492 -3.79791159 -142.00390625 -5.5 C-129.5869778 -16.25371258 -117.28858634 -25.78686441 -101 -29.5 C-99.61131714 -29.82025146 -99.61131714 -29.82025146 -98.19458008 -30.14697266 C-60.94970435 -38.40490093 -27.02620366 -26.06545763 0 0 Z " fill="#FFFFFF" transform="translate(579.125,1557.8125)"/>
<path d="M0 0 C1.04905518 0.10159424 2.09811035 0.20318848 3.17895508 0.30786133 C28.18162402 3.20982681 49.09594081 18.73092795 64.4453125 38.00390625 C81.95482086 61.02091498 89.87260392 88.32237099 86.3828125 117.14111328 C85.57698334 121.78593725 84.24458164 126.17203757 82.6875 130.625 C82.26339844 131.87023438 81.83929687 133.11546875 81.40234375 134.3984375 C71.91949336 160.70886471 52.33932928 182.66253919 27.875 195.9375 C16.17786182 201.39008015 3.64282667 203.21323558 -9.09985352 204.15356445 C-11.21965921 204.31025726 -13.33711286 204.48630203 -15.45507812 204.66601562 C-20.07081385 205.04508332 -24.68958873 205.3482114 -29.3125 205.625 C-30.53380615 205.69918655 -30.53380615 205.69918655 -31.77978516 205.77487183 C-52.99405605 206.99193888 -74.25832072 206.81237577 -95.49902344 206.81030273 C-99.76631956 206.81022191 -104.03350733 206.81710893 -108.30078125 206.83081055 C-129.90631127 206.89906483 -151.47043337 206.83761418 -173.05078125 205.6953125 C-173.84247837 205.65342993 -174.63417549 205.61154736 -175.44986343 205.56839561 C-209.46638921 203.71706143 -237.54087905 197.68794793 -261.98046875 172.30078125 C-266.25259136 167.39893202 -269.86742559 162.128789 -273.3125 156.625 C-273.70888672 155.99787109 -274.10527344 155.37074219 -274.51367188 154.72460938 C-289.68093671 130.38418277 -291.10408148 97.70392453 -284.875 69.9375 C-277.27468516 44.88664279 -258.02057077 22.73802945 -235.27734375 10.390625 C-233.8967933 9.67021168 -232.5127146 8.95651473 -231.125 8.25 C-230.4964209 7.92821777 -229.8678418 7.60643555 -229.22021484 7.27490234 C-171.60036018 -20.9017579 -62.37419112 -6.18198855 0 0 Z " fill="#FFFFFF" transform="translate(2047.3125,965.375)"/>
<path d="M0 0 C4.23244905 3.43774329 8.14345715 7.1489508 12 11 C12.80179688 11.79019531 13.60359375 12.58039062 14.4296875 13.39453125 C44.68978848 44.96346013 41.1527983 94.81362677 41.16796875 135.46875 C41.17120102 137.56587748 41.17456636 139.66300476 41.17805481 141.76013184 C41.18398633 146.12996948 41.18590121 150.49978754 41.18530273 154.86962891 C41.18522197 159.26127281 41.19209622 163.65281131 41.20581055 168.04443359 C41.51230688 267.77383312 41.51230688 267.77383312 32 290 C31.52949219 291.11632812 31.05898437 292.23265625 30.57421875 293.3828125 C18.13821772 320.39178847 -6.03665143 338.68605969 -33.375 348.875 C-58.21069988 357.19077367 -84.8070277 354.82304132 -108.25 343.25 C-131.80705438 331.1053233 -153.71469617 310.9361755 -162.19921875 285.18359375 C-169.84046074 254.80499753 -169.1564857 221.27702119 -169.16796875 190.14453125 C-169.17120097 188.0216215 -169.17456631 185.89871195 -169.17805481 183.77580261 C-169.18398236 179.35647061 -169.18590153 174.93715795 -169.18530273 170.51782227 C-169.18522183 166.07084047 -169.19211851 161.62396248 -169.20581055 157.17700195 C-169.55505011 41.93041145 -169.55505011 41.93041145 -135.1875 6.75 C-99.13571258 -28.87329825 -39.95430314 -30.81490902 0 0 Z " fill="#FFFFFF" transform="translate(1131,22)"/>
<path d="M0 0 C22.69839244 19.32002706 31.25124697 45.15981039 33.71273804 74.01733398 C34.40618948 83.29320502 34.77324988 92.55948129 35.01171875 101.85546875 C35.03265469 102.64448956 35.05359062 103.43351036 35.07516098 104.24644089 C35.53757734 121.99538089 35.61113696 139.74101852 35.58740234 157.49511719 C35.5816967 161.79095652 35.58510992 166.08673397 35.59084225 170.38257122 C35.61037101 187.67290493 35.49670434 204.9504488 35 222.234375 C34.96967619 223.30539145 34.96967619 223.30539145 34.93873978 224.39804459 C33.90132398 260.0791047 31.24171138 290.31789948 5.45703125 317.01953125 C4.36068359 318.210625 4.36068359 318.210625 3.2421875 319.42578125 C-11.65937604 335.18758402 -31.38816676 344.95780927 -52.54296875 349.01953125 C-53.47109375 349.20902344 -54.39921875 349.39851563 -55.35546875 349.59375 C-82.306139 353.19377826 -108.2646865 345.91123463 -130.19921875 330.10546875 C-153.91518276 311.48146172 -168.15237031 291.01768719 -171.8326416 260.62753296 C-174.45910228 236.09952005 -173.80854703 211.35168476 -173.73858643 186.72387695 C-173.72787585 182.00123936 -173.7281614 177.27863115 -173.72859287 172.55598354 C-173.72808262 149.37675752 -173.59796741 126.20524147 -173.08203125 103.03125 C-173.06193182 102.11323231 -173.04183239 101.19521461 -173.02112389 100.2493782 C-171.58440849 36.39595437 -171.58440849 36.39595437 -148.54296875 11.01953125 C-147.79660156 10.13265625 -147.05023437 9.24578125 -146.28125 8.33203125 C-108.70227029 -35.23780029 -43.6327603 -33.98127415 0 0 Z " fill="#FFFFFF" transform="translate(1136.54296875,1783.98046875)"/>
<path d="M0 0 C2.24345662 -0.0007211 4.48690749 -0.00287486 6.73036265 -0.00549722 C14.61469024 -0.01469028 22.49900116 -0.01883978 30.38333392 -0.01804566 C37.6399218 -0.01744657 44.89643496 -0.02798115 52.15300399 -0.04378933 C58.4612473 -0.05702356 64.76946666 -0.06222302 71.07772368 -0.06159025 C74.81075541 -0.06133986 78.54372051 -0.063928 82.27673793 -0.0747683 C163.92758555 -0.29496562 163.92758555 -0.29496562 192.52273822 27.16725707 C193.34644916 27.92780395 194.17016009 28.68835082 195.01883197 29.47194457 C214.76471714 48.26288054 226.12421302 74.0963136 226.80838275 101.34377074 C227.11949245 131.15656454 216.04004517 157.03370559 195.48733783 178.60524535 C168.6931781 205.92579124 134.03214612 207.77103327 97.71023822 208.72975707 C96.93126178 208.75060363 96.15228534 208.77145019 95.34970355 208.79292846 C-79.41877974 213.23790227 -79.41877974 213.23790227 -111.1330235 183.34963012 C-112.58511073 181.95968069 -114.03129295 180.56357038 -115.47726178 179.16725707 C-116.27132428 178.43635863 -117.06538678 177.7054602 -117.88351178 176.95241332 C-135.8223774 159.99260551 -147.93437294 134.99414201 -148.68038678 110.19850707 C-149.11476625 79.52080309 -138.89377635 53.34727064 -117.85323834 31.14284301 C-85.38646654 -2.06491217 -43.43520274 0.00788057 0 0 Z " fill="#FFFFFF" transform="translate(148.4772617816925,962.8327429294586)"/>
</svg>
